<?xml version="1.0" encoding="UTF-8" standalone="no"?>
<!DOCTYPE svg PUBLIC "-//W3C//DTD SVG 1.0//EN" "http://www.w3.org/TR/2001/PR-SVG-20010719/DTD/svg10.dtd">
<svg width="48cm" height="38cm" viewBox="18 31 953 748" xmlns="http://www.w3.org/2000/svg" xmlns:xlink="http://www.w3.org/1999/xlink">
  <defs/>
  <g id="Hintergrund">
    <g>
      <ellipse style="fill: #ffffff; fill-opacity: 1; stroke-opacity: 1; stroke-width: 2; stroke: #000000" cx="44" cy="400" rx="6" ry="6"/>
      <line style="fill: none; stroke-opacity: 1; stroke-width: 2; stroke: #000000" x1="20" y1="412" x2="68" y2="412"/>
      <line style="fill: none; stroke-opacity: 1; stroke-width: 2; stroke: #000000" x1="44" y1="406" x2="44" y2="436"/>
      <line style="fill: none; stroke-opacity: 1; stroke-width: 2; stroke: #000000" x1="44" y1="436" x2="20" y2="462"/>
      <line style="fill: none; stroke-opacity: 1; stroke-width: 2; stroke: #000000" x1="44" y1="436" x2="68" y2="462"/>
      <text font-size="12.8" style="fill: #000000; fill-opacity: 1; stroke: none;text-anchor:middle;font-family:sans-serif;font-style:normal;font-weight:normal" x="44" y="485.881">
        <tspan x="44" y="485.881">Kunde</tspan>
      </text>
    </g>
    <g>
      <ellipse style="fill: #ffffff; fill-opacity: 1; stroke-opacity: 1; stroke-width: 2; stroke: #000000" cx="945" cy="265" rx="6" ry="6"/>
      <line style="fill: none; stroke-opacity: 1; stroke-width: 2; stroke: #000000" x1="921" y1="277" x2="969" y2="277"/>
      <line style="fill: none; stroke-opacity: 1; stroke-width: 2; stroke: #000000" x1="945" y1="271" x2="945" y2="301"/>
      <line style="fill: none; stroke-opacity: 1; stroke-width: 2; stroke: #000000" x1="945" y1="301" x2="921" y2="327"/>
      <line style="fill: none; stroke-opacity: 1; stroke-width: 2; stroke: #000000" x1="945" y1="301" x2="969" y2="327"/>
      <text font-size="12.8" style="fill: #000000; fill-opacity: 1; stroke: none;text-anchor:middle;font-family:sans-serif;font-style:normal;font-weight:normal" x="945" y="350.881">
        <tspan x="945" y="350.881">Admin</tspan>
      </text>
    </g>
    <rect style="fill: #ffffff; fill-opacity: 1; stroke-opacity: 1; stroke-width: 2; stroke: #000000" x="320" y="61" width="541" height="716.75" rx="0" ry="0"/>
    <text font-size="12.8" style="fill: #000000; fill-opacity: 1; stroke: none;text-anchor:start;font-family:sans-serif;font-style:normal;font-weight:normal" x="398" y="43">
      <tspan x="398" y="43">Safe Password System</tspan>
    </text>
    <g>
      <rect style="fill: #ffffff; fill-opacity: 1; stroke-opacity: 1; stroke-width: 2; stroke: #000000" x="441" y="218" width="80" height="36" rx="20" ry="20"/>
      <text font-size="12.8" style="fill: #000000; fill-opacity: 1; stroke: none;text-anchor:middle;font-family:sans-serif;font-style:normal;font-weight:normal" x="481" y="239.881">
        <tspan x="481" y="239.881">login</tspan>
      </text>
    </g>
    <line style="fill: none; stroke-opacity: 1; stroke-width: 2; stroke: #000000" x1="69.9922" y1="424.104" x2="439.998" y2="254.765"/>
    <line style="fill: none; stroke-opacity: 1; stroke-width: 2; stroke: #000000" x1="917.014" y1="297.08" x2="521.895" y2="241.729"/>
    <g>
      <rect style="fill: #ffffff; fill-opacity: 1; stroke-opacity: 1; stroke-width: 2; stroke: #000000" x="349" y="373" width="93.95" height="36" rx="20" ry="20"/>
      <text font-size="12.8" style="fill: #000000; fill-opacity: 1; stroke: none;text-anchor:middle;font-family:sans-serif;font-style:normal;font-weight:normal" x="395.975" y="394.881">
        <tspan x="395.975" y="394.881">registrieren</tspan>
      </text>
    </g>
    <line style="fill: none; stroke-opacity: 1; stroke-width: 2; stroke: #000000" x1="70.005" y1="432.675" x2="348.004" y2="397.133"/>
    <g>
      <rect style="fill: #ffffff; fill-opacity: 1; stroke-opacity: 1; stroke-width: 2; stroke: #000000" x="366" y="435" width="167.25" height="36" rx="20" ry="20"/>
      <text font-size="12.8" style="fill: #000000; fill-opacity: 1; stroke: none;text-anchor:middle;font-family:sans-serif;font-style:normal;font-weight:normal" x="449.625" y="456.881">
        <tspan x="449.625" y="456.881">eigenes Profil editieren</tspan>
      </text>
    </g>
    <g>
      <rect style="fill: #ffffff; fill-opacity: 1; stroke-opacity: 1; stroke-width: 2; stroke: #000000" x="327" y="87" width="175.15" height="36" rx="20" ry="20"/>
      <text font-size="12.8" style="fill: #000000; fill-opacity: 1; stroke: none;text-anchor:middle;font-family:sans-serif;font-style:normal;font-weight:normal" x="414.575" y="108.881">
        <tspan x="414.575" y="108.881">neues Passwort anlegen</tspan>
      </text>
    </g>
    <g>
      <rect style="fill: #ffffff; fill-opacity: 1; stroke-opacity: 1; stroke-width: 2; stroke: #000000" x="431" y="506" width="130.1" height="52" rx="20" ry="20"/>
      <text font-size="12.8" style="fill: #000000; fill-opacity: 1; stroke: none;text-anchor:middle;font-family:sans-serif;font-style:normal;font-weight:normal" x="496.05" y="527.881">
        <tspan x="496.05" y="527.881">eigenes </tspan>
        <tspan x="496.05" y="543.881">Passwort löschen</tspan>
      </text>
    </g>
    <g>
      <polyline style="fill: none; stroke-opacity: 1; stroke-width: 2; stroke-dasharray: 8; stroke: #000000" points="449.625,433.991 449.625,348.5 481,348.5 481,261.714 "/>
      <polyline style="fill: none; stroke-opacity: 1; stroke-width: 2; stroke: #000000" points="486,274.362 481,258.362 476,274.362 "/>
      <text font-size="12.8" style="fill: #000000; fill-opacity: 1; stroke: none;text-anchor:middle;font-family:monospace;font-style:normal;font-weight:normal" x="465.312" y="345.481">&lt;&lt;include&gt;&gt;</text>
    </g>
    <line style="fill: none; stroke-opacity: 1; stroke-width: 2; stroke: #000000" x1="70.0014" y1="437.09" x2="364.998" y2="449.453"/>
    <line style="fill: none; stroke-opacity: 1; stroke-width: 2; stroke: #000000" x1="70.0045" y1="441.522" x2="430.025" y2="517.979"/>
    <g>
      <polyline style="fill: none; stroke-opacity: 1; stroke-width: 2; stroke-dasharray: 8; stroke: #000000" points="561.05,532 561,532 561,418.004 481,418.004 481,261.634 "/>
      <polyline style="fill: none; stroke-opacity: 1; stroke-width: 2; stroke: #000000" points="486,274.282 481,258.282 476,274.282 "/>
      <text font-size="12.8" style="fill: #000000; fill-opacity: 1; stroke: none;text-anchor:middle;font-family:monospace;font-style:normal;font-weight:normal" x="521" y="414.985">&lt;&lt;include&gt;&gt;</text>
    </g>
    <line style="fill: none; stroke-opacity: 1; stroke-width: 2; stroke: #000000" x1="69.9882" y1="412.787" x2="393.303" y2="124.001"/>
    <g>
      <polyline style="fill: none; stroke-opacity: 1; stroke-width: 2; stroke-dasharray: 8; stroke: #000000" points="414.573,123.853 414.568,187.5 481,187.5 481,210.29 "/>
      <polyline style="fill: none; stroke-opacity: 1; stroke-width: 2; stroke: #000000" points="476,197.643 481,213.643 486,197.643 "/>
      <text font-size="12.8" style="fill: #000000; fill-opacity: 1; stroke: none;text-anchor:middle;font-family:monospace;font-style:normal;font-weight:normal" x="447.784" y="184.481">&lt;&lt;include&gt;&gt;</text>
    </g>
    <line style="fill: none; stroke-opacity: 1; stroke-width: 2; stroke: #000000" x1="466.002" y1="124.003" x2="918.995" y2="291.391"/>
    <g>
      <rect style="fill: #ffffff; fill-opacity: 1; stroke-opacity: 1; stroke-width: 2; stroke: #000000" x="730" y="330" width="121.35" height="36" rx="20" ry="20"/>
      <text font-size="12.8" style="fill: #000000; fill-opacity: 1; stroke: none;text-anchor:middle;font-family:sans-serif;font-style:normal;font-weight:normal" x="790.675" y="351.881">
        <tspan x="790.675" y="351.881">Kunden löschen</tspan>
      </text>
    </g>
    <g>
      <rect style="fill: #ffffff; fill-opacity: 1; stroke-opacity: 1; stroke-width: 2; stroke: #000000" x="435" y="580" width="192.15" height="36" rx="20" ry="20"/>
      <text font-size="12.8" style="fill: #000000; fill-opacity: 1; stroke: none;text-anchor:middle;font-family:sans-serif;font-style:normal;font-weight:normal" x="531.075" y="601.881">
        <tspan x="531.075" y="601.881">eigenes Passwort editieren</tspan>
      </text>
    </g>
    <g>
      <rect style="fill: #ffffff; fill-opacity: 1; stroke-opacity: 1; stroke-width: 2; stroke: #000000" x="707" y="398.75" width="133.85" height="52" rx="20" ry="20"/>
      <text font-size="12.8" style="fill: #000000; fill-opacity: 1; stroke: none;text-anchor:middle;font-family:sans-serif;font-style:normal;font-weight:normal" x="773.925" y="420.631">
        <tspan x="773.925" y="420.631">Kundenpassweort</tspan>
        <tspan x="773.925" y="436.631">editieren</tspan>
      </text>
    </g>
    <line style="fill: none; stroke-opacity: 1; stroke-width: 2; stroke: #000000" x1="69.9977" y1="444.647" x2="473.966" y2="579.006"/>
    <g>
      <rect style="fill: #ffffff; fill-opacity: 1; stroke-opacity: 1; stroke-width: 2; stroke: #000000" x="694" y="693.75" width="125.95" height="52" rx="20" ry="20"/>
      <text font-size="12.8" style="fill: #000000; fill-opacity: 1; stroke: none;text-anchor:middle;font-family:sans-serif;font-style:normal;font-weight:normal" x="756.975" y="715.631">
        <tspan x="756.975" y="715.631">Kundenpasswort</tspan>
        <tspan x="756.975" y="731.631">löschen</tspan>
      </text>
    </g>
    <g>
      <polyline style="fill: none; stroke-opacity: 1; stroke-width: 2; stroke-dasharray: 8; stroke: #000000" points="626.75,580 626.75,379.75 481,379.75 481,261.701 "/>
      <polyline style="fill: none; stroke-opacity: 1; stroke-width: 2; stroke: #000000" points="486,274.348 481,258.348 476,274.348 "/>
      <text font-size="12.8" style="fill: #000000; fill-opacity: 1; stroke: none;text-anchor:middle;font-family:monospace;font-style:normal;font-weight:normal" x="553.875" y="376.731">&lt;&lt;include&gt;&gt;</text>
    </g>
    <g>
      <polyline style="fill: none; stroke-opacity: 1; stroke-width: 2; stroke-dasharray: 8; stroke: #000000" points="790.675,328.991 790.675,296 481,296 481,261.714 "/>
      <polyline style="fill: none; stroke-opacity: 1; stroke-width: 2; stroke: #000000" points="486,274.362 481,258.362 476,274.362 "/>
      <text font-size="12.8" style="fill: #000000; fill-opacity: 1; stroke: none;text-anchor:middle;font-family:monospace;font-style:normal;font-weight:normal" x="635.837" y="292.981">&lt;&lt;include&gt;&gt;</text>
    </g>
    <g>
      <polyline style="fill: none; stroke-opacity: 1; stroke-width: 2; stroke-dasharray: 8; stroke: #000000" points="707,398.75 707,330.88 481,330.88 481,261.714 "/>
      <polyline style="fill: none; stroke-opacity: 1; stroke-width: 2; stroke: #000000" points="486,274.362 481,258.362 476,274.362 "/>
      <text font-size="12.8" style="fill: #000000; fill-opacity: 1; stroke: none;text-anchor:middle;font-family:monospace;font-style:normal;font-weight:normal" x="594" y="327.861">&lt;&lt;include&gt;&gt;</text>
    </g>
    <g>
      <polyline style="fill: none; stroke-opacity: 1; stroke-width: 2; stroke-dasharray: 8; stroke: #000000" points="692.996,719.75 665,719.75 665,236 528.696,236 "/>
      <polyline style="fill: none; stroke-opacity: 1; stroke-width: 2; stroke: #000000" points="541.344,231 525.344,236 541.344,241 "/>
      <text font-size="12.8" style="fill: #000000; fill-opacity: 1; stroke: none;text-anchor:start;font-family:monospace;font-style:normal;font-weight:normal" x="667" y="474.856">&lt;&lt;include&gt;&gt;</text>
    </g>
    <line style="fill: none; stroke-opacity: 1; stroke-width: 2; stroke: #000000" x1="852.333" y1="329.222" x2="918.993" y2="308.92"/>
    <line style="fill: none; stroke-opacity: 1; stroke-width: 2; stroke: #000000" x1="811.222" y1="397.77" x2="918.995" y2="319.811"/>
    <line style="fill: none; stroke-opacity: 1; stroke-width: 2; stroke: #000000" x1="769.1" y1="692.747" x2="920.349" y2="355.9"/>
    <g>
      <polyline style="fill: none; stroke-opacity: 1; stroke-width: 2; stroke-dasharray: 8; stroke: #000000" points="481,254.994 481,309.5 395.975,309.5 395.975,365.303 "/>
      <polyline style="fill: none; stroke-opacity: 1; stroke-width: 2; stroke: #000000" points="390.975,352.655 395.975,368.655 400.975,352.655 "/>
      <text font-size="12.8" style="fill: #000000; fill-opacity: 1; stroke: none;text-anchor:middle;font-family:monospace;font-style:normal;font-weight:normal" x="438.487" y="306.481">&lt;&lt;include&gt;&gt;</text>
    </g>
  </g>
</svg>
